<?xml version="1.0" encoding="UTF-8"?>
<svg id="Layer_2" data-name="Layer 2" xmlns="http://www.w3.org/2000/svg" viewBox="0 0 529.36 315.86">
  <defs>
    <style>
      .cls-1 {
        stroke-width: 3px;
      }

      .cls-1, .cls-2, .cls-3, .cls-4, .cls-5, .cls-6, .cls-7, .cls-8 {
        stroke-miterlimit: 10;
      }

      .cls-1, .cls-3, .cls-4, .cls-5, .cls-6, .cls-7, .cls-8 {
        fill: none;
      }

      .cls-1, .cls-3, .cls-4, .cls-6, .cls-8 {
        stroke-linecap: round;
      }

      .cls-1, .cls-3, .cls-5 {
        stroke: #aac2cf;
      }

      .cls-9 {
        opacity: .1;
      }

      .cls-9, .cls-10 {
        fill: #666;
      }

      .cls-11 {
        fill: #449abc;
        font-family: Lato-Black, Lato;
        font-size: 10px;
      }

      .cls-12 {
        fill: #f2f2f2;
      }

      .cls-13 {
        fill: #69821c;
      }

      .cls-14 {
        fill: #e7ac5f;
      }

      .cls-15, .cls-2 {
        fill: #fff;
      }

      .cls-16 {
        fill: #ffe9c5;
      }

      .cls-17 {
        fill: #ffebe7;
      }

      .cls-18 {
        fill: #ffd296;
      }

      .cls-19 {
        fill: #ffb740;
      }

      .cls-20, .cls-21 {
        fill: #e2e9f3;
      }

      .cls-22 {
        fill: #f0c48f;
      }

      .cls-23 {
        fill: #ff6c76;
      }

      .cls-24 {
        fill: #919da8;
      }

      .cls-25 {
        fill: #73871e;
      }

      .cls-26 {
        fill: #9ca5ab;
      }

      .cls-27, .cls-28 {
        fill: #858c8f;
      }

      .cls-29 {
        fill: #c0c5c9;
      }

      .cls-30 {
        fill: #d2d2d2;
      }

      .cls-31 {
        fill: #d6dde5;
      }

      .cls-32, .cls-33 {
        fill: #a7b0b6;
      }

      .cls-34 {
        fill: #537210;
      }

      .cls-35, .cls-36 {
        fill: #465a72;
      }

      .cls-37 {
        fill: #4a575e;
      }

      .cls-38 {
        fill: #4a660e;
      }

      .cls-39 {
        fill: #58646d;
      }

      .cls-40 {
        fill: #49590e;
      }

      .cls-41 {
        fill: #788490;
      }

      .cls-2 {
        stroke: #b3b3b3;
      }

      .cls-3, .cls-4, .cls-5 {
        stroke-width: 2px;
      }

      .cls-4 {
        stroke: #c6da4c;
      }

      .cls-42 {
        fill: #323e49;
        opacity: .15;
      }

      .cls-43, .cls-28 {
        opacity: .2;
      }

      .cls-43, .cls-44 {
        fill: #4b505a;
      }

      .cls-6 {
        stroke: #8a9199;
        stroke-width: 9px;
      }

      .cls-7, .cls-8 {
        stroke: #e7ac5f;
      }

      .cls-45 {
        opacity: .5;
      }

      .cls-8 {
        stroke-width: .75px;
      }

      .cls-36 {
        opacity: .8;
      }

      .cls-33 {
        opacity: .7;
      }

      .cls-10 {
        opacity: .3;
      }

      .cls-44 {
        opacity: .4;
      }

      .cls-21 {
        opacity: .65;
      }
    </style>
  </defs>
  <g id="Layer_1-2" data-name="Layer 1">
    <ellipse class="cls-9" cx="404.24" cy="266.94" rx="66.65" ry="13.5"/>
    <g>
      <g class="cls-45">
        <rect class="cls-20" x="51.53" y="13.09" width="31.95" height="10.49" rx="1.85" ry="1.85"/>
        <rect class="cls-31" x="85.74" y="13.09" width="31.95" height="10.49" rx="1.85" ry="1.85"/>
        <rect class="cls-20" x="120.07" y="13.09" width="31.95" height="10.49" rx="1.85" ry="1.85"/>
        <rect class="cls-20" x="154.28" y="13.09" width="31.95" height="10.49" rx="1.85" ry="1.85"/>
        <rect class="cls-20" x="189.15" y="13.09" width="31.95" height="10.49" rx="1.85" ry="1.85"/>
        <rect class="cls-20" x="223.36" y="13.09" width="31.95" height="10.49" rx="1.85" ry="1.85"/>
        <rect class="cls-20" x="257.69" y="13.09" width="31.95" height="10.49" rx="1.85" ry="1.85"/>
        <rect class="cls-20" x="291.9" y="13.09" width="31.95" height="10.49" rx="1.85" ry="1.85"/>
        <rect class="cls-20" x="326.23" y="13.09" width="31.95" height="10.49" rx="1.85" ry="1.85"/>
        <rect class="cls-20" x="360.44" y="13.09" width="31.95" height="10.49" rx="1.85" ry="1.85"/>
        <rect class="cls-20" x="394.78" y="13.09" width="31.95" height="10.49" rx="1.85" ry="1.85"/>
        <rect class="cls-20" x="428.99" y="13.09" width="31.95" height="10.49" rx="1.85" ry="1.85"/>
        <rect class="cls-21" x="68.42" y="26.2" width="31.95" height="10.49" rx="1.85" ry="1.85"/>
        <rect class="cls-20" x="102.64" y="26.2" width="31.95" height="10.49" rx="1.85" ry="1.85"/>
        <rect class="cls-20" x="34.21" y="26.2" width="31.95" height="10.49" rx="1.85" ry="1.85"/>
        <rect class="cls-21" x="136.97" y="26.2" width="31.95" height="10.49" rx="1.85" ry="1.85"/>
        <rect class="cls-20" x="171.18" y="26.2" width="31.95" height="10.49" rx="1.85" ry="1.85"/>
        <rect class="cls-20" x="206.04" y="26.2" width="31.95" height="10.49" rx="1.85" ry="1.85"/>
        <rect class="cls-20" x="240.26" y="26.2" width="31.95" height="10.49" rx="1.85" ry="1.85"/>
        <rect class="cls-21" x="274.59" y="26.2" width="31.95" height="10.49" rx="1.85" ry="1.85"/>
        <rect class="cls-20" x="308.8" y="26.2" width="31.95" height="10.49" rx="1.85" ry="1.85"/>
        <rect class="cls-21" x="343.13" y="26.2" width="31.95" height="10.49" rx="1.85" ry="1.85"/>
        <rect class="cls-20" x="377.34" y="26.2" width="31.95" height="10.49" rx="1.85" ry="1.85"/>
        <rect class="cls-31" x="411.67" y="26.2" width="31.95" height="10.49" rx="1.85" ry="1.85"/>
        <rect class="cls-20" x="445.89" y="26.2" width="31.95" height="10.49" rx="1.85" ry="1.85"/>
        <rect class="cls-20" x="51.53" y="39.31" width="31.95" height="10.49" rx="1.85" ry="1.85"/>
        <rect class="cls-20" x="85.74" y="39.31" width="31.95" height="10.49" rx="1.85" ry="1.85"/>
        <rect class="cls-21" x="17.31" y="39.31" width="31.95" height="10.49" rx="1.85" ry="1.85"/>
        <rect class="cls-20" x="120.07" y="39.31" width="31.95" height="10.49" rx="1.85" ry="1.85"/>
        <rect class="cls-20" x="154.28" y="39.31" width="31.95" height="10.49" rx="1.85" ry="1.85"/>
        <rect class="cls-31" x="189.15" y="39.31" width="31.95" height="10.49" rx="1.85" ry="1.85"/>
        <rect class="cls-20" x="223.36" y="39.31" width="31.95" height="10.49" rx="1.85" ry="1.85"/>
        <rect class="cls-20" x="257.69" y="39.31" width="31.95" height="10.49" rx="1.85" ry="1.85"/>
        <rect class="cls-20" x="291.9" y="39.31" width="31.95" height="10.49" rx="1.85" ry="1.85"/>
        <rect class="cls-20" x="326.23" y="39.31" width="31.95" height="10.49" rx="1.85" ry="1.85"/>
        <rect class="cls-20" x="360.44" y="39.31" width="31.95" height="10.49" rx="1.85" ry="1.85"/>
        <rect class="cls-20" x="394.78" y="39.31" width="31.95" height="10.49" rx="1.85" ry="1.85"/>
        <rect class="cls-20" x="428.99" y="39.31" width="31.95" height="10.49" rx="1.85" ry="1.85"/>
        <rect class="cls-20" x="463.2" y="39.31" width="31.95" height="10.49" rx="1.85" ry="1.85"/>
        <rect class="cls-20" x="68.42" y="52.42" width="31.95" height="10.49" rx="1.85" ry="1.85"/>
        <rect class="cls-20" x="102.64" y="52.42" width="31.95" height="10.49" rx="1.85" ry="1.85"/>
        <rect class="cls-20" x="34.21" y="52.42" width="31.95" height="10.49" rx="1.85" ry="1.85"/>
        <rect class="cls-20" x="136.97" y="52.42" width="31.95" height="10.49" rx="1.85" ry="1.85"/>
        <rect class="cls-20" x="171.18" y="52.42" width="31.95" height="10.49" rx="1.85" ry="1.85"/>
        <rect class="cls-20" x="206.04" y="52.42" width="31.95" height="10.49" rx="1.85" ry="1.85"/>
        <rect class="cls-20" x="240.26" y="52.42" width="31.95" height="10.49" rx="1.85" ry="1.85"/>
        <rect class="cls-31" x="274.59" y="52.42" width="31.95" height="10.49" rx="1.85" ry="1.85"/>
        <rect class="cls-20" x="308.8" y="52.42" width="31.95" height="10.49" rx="1.85" ry="1.85"/>
        <rect class="cls-20" x="343.13" y="52.42" width="31.95" height="10.49" rx="1.85" ry="1.85"/>
        <rect class="cls-21" x="377.34" y="52.42" width="31.95" height="10.49" rx="1.85" ry="1.85"/>
        <rect class="cls-20" x="411.67" y="52.42" width="31.95" height="10.49" rx="1.85" ry="1.85"/>
        <rect class="cls-21" x="445.89" y="52.42" width="31.95" height="10.49" rx="1.85" ry="1.85"/>
        <rect class="cls-21" x="51.53" y="65.54" width="31.95" height="10.49" rx="1.85" ry="1.85"/>
        <rect class="cls-20" x="85.74" y="65.54" width="31.95" height="10.49" rx="1.85" ry="1.85"/>
        <rect class="cls-20" x="17.31" y="65.54" width="31.95" height="10.49" rx="1.85" ry="1.85"/>
        <rect class="cls-31" x="120.07" y="65.54" width="31.95" height="10.49" rx="1.85" ry="1.85"/>
        <rect class="cls-21" x="154.28" y="65.54" width="31.95" height="10.49" rx="1.85" ry="1.85"/>
        <rect class="cls-20" x="189.15" y="65.54" width="31.95" height="10.49" rx="1.85" ry="1.85"/>
        <rect class="cls-20" x="223.36" y="65.54" width="31.95" height="10.49" rx="1.85" ry="1.85"/>
        <rect class="cls-20" x="257.69" y="65.54" width="31.95" height="10.49" rx="1.85" ry="1.85"/>
        <rect class="cls-20" x="291.9" y="65.54" width="31.95" height="10.49" rx="1.85" ry="1.85"/>
        <rect class="cls-21" x="326.23" y="65.54" width="31.95" height="10.49" rx="1.85" ry="1.85"/>
        <rect class="cls-20" x="360.44" y="65.54" width="31.95" height="10.49" rx="1.85" ry="1.85"/>
        <rect class="cls-20" x="394.78" y="65.54" width="31.95" height="10.49" rx="1.85" ry="1.85"/>
        <rect class="cls-20" x="428.99" y="65.54" width="31.95" height="10.49" rx="1.85" ry="1.85"/>
        <rect class="cls-21" x="463.2" y="65.54" width="31.95" height="10.49" rx="1.85" ry="1.85"/>
        <rect class="cls-20" x="68.42" y="78.65" width="31.95" height="10.49" rx="1.85" ry="1.85"/>
        <rect class="cls-20" x="102.64" y="78.65" width="31.95" height="10.49" rx="1.85" ry="1.85"/>
        <rect class="cls-20" x="34.21" y="78.65" width="31.95" height="10.49" rx="1.85" ry="1.85"/>
        <rect class="cls-20" x="136.97" y="78.65" width="31.95" height="10.49" rx="1.85" ry="1.85"/>
        <rect class="cls-20" x="171.18" y="78.65" width="31.95" height="10.49" rx="1.85" ry="1.85"/>
        <rect class="cls-20" x="206.04" y="78.65" width="31.95" height="10.49" rx="1.85" ry="1.85"/>
        <rect class="cls-21" x="240.26" y="78.65" width="31.95" height="10.49" rx="1.85" ry="1.85"/>
        <rect class="cls-20" x="274.59" y="78.65" width="31.95" height="10.49" rx="1.85" ry="1.85"/>
        <rect class="cls-20" x="308.8" y="78.65" width="31.95" height="10.49" rx="1.85" ry="1.85"/>
        <rect class="cls-20" x="343.13" y="78.65" width="31.95" height="10.49" rx="1.85" ry="1.85"/>
        <rect class="cls-20" x="377.34" y="78.65" width="31.95" height="10.49" rx="1.85" ry="1.85"/>
        <rect class="cls-20" x="411.67" y="78.65" width="31.95" height="10.49" rx="1.85" ry="1.85"/>
        <rect class="cls-20" x="445.89" y="78.65" width="31.95" height="10.49" rx="1.85" ry="1.85"/>
        <rect class="cls-20" x="51.53" y="91.76" width="31.95" height="10.49" rx="1.85" ry="1.85"/>
        <rect class="cls-31" x="85.74" y="91.76" width="31.95" height="10.49" rx="1.85" ry="1.85"/>
        <rect class="cls-21" x="120.07" y="91.76" width="31.95" height="10.49" rx="1.85" ry="1.85"/>
        <rect class="cls-20" x="154.28" y="91.76" width="31.95" height="10.49" rx="1.85" ry="1.85"/>
        <rect class="cls-20" x="189.15" y="91.76" width="31.95" height="10.49" rx="1.85" ry="1.85"/>
        <rect class="cls-20" x="223.36" y="91.76" width="31.95" height="10.49" rx="1.85" ry="1.85"/>
        <rect class="cls-20" x="257.69" y="91.76" width="31.95" height="10.49" rx="1.85" ry="1.85"/>
        <rect class="cls-31" x="291.9" y="91.76" width="31.95" height="10.49" rx="1.85" ry="1.85"/>
        <rect class="cls-21" x="326.23" y="91.76" width="31.95" height="10.49" rx="1.85" ry="1.85"/>
        <rect class="cls-20" x="360.44" y="91.76" width="31.95" height="10.49" rx="1.85" ry="1.85"/>
        <rect class="cls-21" x="394.78" y="91.76" width="31.95" height="10.49" rx="1.85" ry="1.85"/>
        <rect class="cls-31" x="428.99" y="91.76" width="31.95" height="10.49" rx="1.85" ry="1.85"/>
        <rect class="cls-20" x="463.2" y="91.76" width="31.95" height="10.49" rx="1.85" ry="1.85"/>
        <rect class="cls-20" x="68.42" y="104.87" width="31.95" height="10.49" rx="1.85" ry="1.85"/>
        <rect class="cls-20" x="102.64" y="104.87" width="31.95" height="10.49" rx="1.85" ry="1.85"/>
        <rect class="cls-21" x="34.21" y="104.87" width="31.95" height="10.49" rx="1.85" ry="1.85"/>
        <rect class="cls-20" x="136.97" y="104.87" width="31.95" height="10.49" rx="1.85" ry="1.85"/>
        <rect class="cls-20" x="171.18" y="104.87" width="31.95" height="10.49" rx="1.85" ry="1.85"/>
        <rect class="cls-20" x="206.04" y="104.87" width="31.95" height="10.49" rx="1.85" ry="1.85"/>
        <rect class="cls-20" x="240.26" y="104.87" width="31.95" height="10.49" rx="1.85" ry="1.85"/>
        <rect class="cls-20" x="274.59" y="104.87" width="31.95" height="10.49" rx="1.85" ry="1.85"/>
        <rect class="cls-20" x="308.8" y="104.87" width="31.95" height="10.49" rx="1.85" ry="1.85"/>
        <rect class="cls-20" x="343.13" y="104.87" width="31.95" height="10.49" rx="1.85" ry="1.85"/>
        <rect class="cls-20" x="377.34" y="104.87" width="31.95" height="10.49" rx="1.85" ry="1.85"/>
        <rect class="cls-20" x="411.67" y="104.87" width="31.95" height="10.49" rx="1.85" ry="1.85"/>
        <rect class="cls-21" x="445.89" y="104.87" width="31.95" height="10.49" rx="1.85" ry="1.85"/>
        <rect class="cls-20" x="51.53" y="117.99" width="31.95" height="10.49" rx="1.85" ry="1.85"/>
        <rect class="cls-20" x="85.74" y="117.99" width="31.95" height="10.49" rx="1.85" ry="1.85"/>
        <rect class="cls-20" x="17.31" y="117.99" width="31.95" height="10.49" rx="1.85" ry="1.85"/>
        <rect class="cls-31" x="120.07" y="117.99" width="31.95" height="10.49" rx="1.85" ry="1.85"/>
        <rect class="cls-20" x="154.28" y="117.99" width="31.95" height="10.49" rx="1.85" ry="1.85"/>
        <rect class="cls-21" x="189.15" y="117.99" width="31.95" height="10.49" rx="1.85" ry="1.85"/>
        <rect class="cls-20" x="223.36" y="117.99" width="31.95" height="10.49" rx="1.85" ry="1.85"/>
        <rect class="cls-20" x="257.69" y="117.99" width="31.95" height="10.49" rx="1.85" ry="1.85"/>
        <rect class="cls-21" x="291.9" y="117.99" width="31.95" height="10.49" rx="1.85" ry="1.85"/>
        <rect class="cls-20" x="326.23" y="117.99" width="31.95" height="10.49" rx="1.85" ry="1.85"/>
        <rect class="cls-20" x="360.44" y="117.99" width="31.95" height="10.49" rx="1.85" ry="1.85"/>
        <rect class="cls-20" x="394.78" y="117.99" width="31.95" height="10.49" rx="1.85" ry="1.85"/>
        <rect class="cls-20" x="428.99" y="117.99" width="31.95" height="10.49" rx="1.85" ry="1.85"/>
        <rect class="cls-20" x="463.2" y="117.99" width="31.95" height="10.49" rx="1.85" ry="1.85"/>
        <rect class="cls-21" x="68.42" y="131.1" width="31.95" height="10.49" rx="1.85" ry="1.85"/>
        <rect class="cls-20" x="102.64" y="131.1" width="31.95" height="10.49" rx="1.85" ry="1.85"/>
        <rect class="cls-20" x="34.21" y="131.1" width="31.95" height="10.49" rx="1.85" ry="1.85"/>
        <rect class="cls-20" x="136.97" y="131.1" width="31.95" height="10.49" rx="1.85" ry="1.85"/>
        <rect class="cls-20" x="171.18" y="131.1" width="31.95" height="10.49" rx="1.85" ry="1.85"/>
        <rect class="cls-21" x="206.04" y="131.1" width="31.95" height="10.49" rx="1.85" ry="1.85"/>
        <rect class="cls-20" x="240.26" y="131.1" width="31.95" height="10.49" rx="1.85" ry="1.85"/>
        <rect class="cls-20" x="274.59" y="131.1" width="31.95" height="10.49" rx="1.85" ry="1.85"/>
        <rect class="cls-20" x="308.8" y="131.1" width="31.95" height="10.49" rx="1.85" ry="1.85"/>
        <rect class="cls-20" x="343.13" y="131.1" width="31.95" height="10.49" rx="1.85" ry="1.85"/>
        <rect class="cls-21" x="377.34" y="131.1" width="31.95" height="10.49" rx="1.85" ry="1.85"/>
        <rect class="cls-20" x="411.67" y="131.1" width="31.95" height="10.49" rx="1.85" ry="1.85"/>
        <rect class="cls-20" x="445.89" y="131.1" width="31.95" height="10.49" rx="1.85" ry="1.85"/>
        <rect class="cls-20" x="480.1" y="131.1" width="31.95" height="10.49" rx="1.85" ry="1.85"/>
        <rect class="cls-20" x="51.53" y="144.21" width="31.95" height="10.49" rx="1.85" ry="1.85"/>
        <rect class="cls-31" x="85.74" y="144.21" width="31.95" height="10.49" rx="1.85" ry="1.85"/>
        <rect class="cls-31" x="17.31" y="144.21" width="31.95" height="10.49" rx="1.85" ry="1.85"/>
        <rect class="cls-20" x="120.07" y="144.21" width="31.95" height="10.49" rx="1.85" ry="1.85"/>
        <rect class="cls-20" x="154.28" y="144.21" width="31.95" height="10.49" rx="1.85" ry="1.85"/>
        <rect class="cls-20" x="189.15" y="144.21" width="31.95" height="10.49" rx="1.85" ry="1.85"/>
        <rect class="cls-20" x="223.36" y="144.21" width="31.95" height="10.49" rx="1.85" ry="1.85"/>
        <rect class="cls-20" x="257.69" y="144.21" width="31.95" height="10.49" rx="1.85" ry="1.85"/>
        <rect class="cls-20" x="291.9" y="144.21" width="31.95" height="10.49" rx="1.85" ry="1.85"/>
        <rect class="cls-20" x="326.23" y="144.21" width="31.95" height="10.49" rx="1.85" ry="1.85"/>
        <rect class="cls-20" x="360.44" y="144.21" width="31.95" height="10.49" rx="1.85" ry="1.85"/>
        <rect class="cls-20" x="394.78" y="144.21" width="31.95" height="10.49" rx="1.85" ry="1.85"/>
        <rect class="cls-20" x="428.99" y="144.21" width="31.95" height="10.49" rx="1.85" ry="1.85"/>
        <rect class="cls-21" x="463.2" y="144.21" width="31.95" height="10.49" rx="1.85" ry="1.85"/>
        <rect class="cls-21" x="68.42" y="157.32" width="31.95" height="10.49" rx="1.85" ry="1.85"/>
        <rect class="cls-20" x="102.64" y="157.32" width="31.95" height="10.49" rx="1.85" ry="1.85"/>
        <rect class="cls-20" y="157.32" width="31.95" height="10.49" rx="1.85" ry="1.85"/>
        <rect class="cls-20" x="34.21" y="157.32" width="31.95" height="10.49" rx="1.85" ry="1.85"/>
        <rect class="cls-21" x="136.97" y="157.32" width="31.95" height="10.49" rx="1.85" ry="1.85"/>
        <rect class="cls-20" x="171.18" y="157.32" width="31.95" height="10.49" rx="1.85" ry="1.85"/>
        <rect class="cls-20" x="206.04" y="157.32" width="31.95" height="10.49" rx="1.85" ry="1.85"/>
        <rect class="cls-20" x="240.26" y="157.32" width="31.95" height="10.49" rx="1.85" ry="1.85"/>
        <rect class="cls-21" x="274.59" y="157.32" width="31.95" height="10.49" rx="1.85" ry="1.85"/>
        <rect class="cls-20" x="308.8" y="157.32" width="31.95" height="10.49" rx="1.85" ry="1.85"/>
        <rect class="cls-21" x="343.13" y="157.32" width="31.95" height="10.49" rx="1.85" ry="1.85"/>
        <rect class="cls-20" x="377.34" y="157.32" width="31.95" height="10.49" rx="1.85" ry="1.85"/>
        <rect class="cls-31" x="411.67" y="157.32" width="31.95" height="10.49" rx="1.85" ry="1.85"/>
        <rect class="cls-20" x="445.89" y="157.32" width="31.95" height="10.49" rx="1.85" ry="1.85"/>
        <rect class="cls-20" x="480.1" y="157.32" width="31.95" height="10.49" rx="1.85" ry="1.85"/>
        <rect class="cls-20" x="51.53" y="170.44" width="31.95" height="10.49" rx="1.85" ry="1.85"/>
        <rect class="cls-20" x="85.74" y="170.44" width="31.95" height="10.49" rx="1.85" ry="1.85"/>
        <rect class="cls-21" x="17.31" y="170.44" width="31.95" height="10.49" rx="1.85" ry="1.85"/>
        <rect class="cls-20" x="120.07" y="170.44" width="31.95" height="10.49" rx="1.85" ry="1.85"/>
        <rect class="cls-20" x="154.28" y="170.44" width="31.95" height="10.49" rx="1.85" ry="1.85"/>
        <rect class="cls-31" x="189.15" y="170.44" width="31.95" height="10.49" rx="1.85" ry="1.85"/>
        <rect class="cls-20" x="223.36" y="170.44" width="31.95" height="10.49" rx="1.85" ry="1.85"/>
        <rect class="cls-20" x="257.69" y="170.44" width="31.95" height="10.49" rx="1.85" ry="1.85"/>
        <rect class="cls-20" x="291.9" y="170.44" width="31.95" height="10.49" rx="1.85" ry="1.85"/>
        <rect class="cls-20" x="326.23" y="170.44" width="31.95" height="10.49" rx="1.85" ry="1.85"/>
        <rect class="cls-20" x="360.44" y="170.44" width="31.95" height="10.49" rx="1.85" ry="1.85"/>
        <rect class="cls-20" x="394.78" y="170.44" width="31.95" height="10.49" rx="1.85" ry="1.85"/>
        <rect class="cls-20" x="428.99" y="170.44" width="31.95" height="10.49" rx="1.85" ry="1.85"/>
        <rect class="cls-20" x="463.2" y="170.44" width="31.95" height="10.49" rx="1.85" ry="1.85"/>
        <rect class="cls-20" x="497.41" y="170.44" width="31.95" height="10.49" rx="1.85" ry="1.85"/>
        <rect class="cls-20" x="68.42" y="183.55" width="31.95" height="10.49" rx="1.85" ry="1.85"/>
        <rect class="cls-20" x="102.64" y="183.55" width="31.95" height="10.49" rx="1.85" ry="1.85"/>
        <rect class="cls-20" x="34.21" y="183.55" width="31.95" height="10.49" rx="1.85" ry="1.85"/>
        <rect class="cls-20" x="136.97" y="183.55" width="31.95" height="10.49" rx="1.85" ry="1.85"/>
        <rect class="cls-20" x="171.18" y="183.55" width="31.95" height="10.49" rx="1.85" ry="1.85"/>
        <rect class="cls-20" x="206.04" y="183.55" width="31.95" height="10.49" rx="1.85" ry="1.85"/>
        <rect class="cls-20" x="240.26" y="183.55" width="31.95" height="10.49" rx="1.85" ry="1.85"/>
        <rect class="cls-31" x="274.59" y="183.55" width="31.95" height="10.49" rx="1.85" ry="1.85"/>
        <rect class="cls-20" x="308.8" y="183.55" width="31.95" height="10.49" rx="1.85" ry="1.85"/>
        <rect class="cls-20" x="343.13" y="183.55" width="31.95" height="10.49" rx="1.85" ry="1.85"/>
        <rect class="cls-21" x="377.34" y="183.55" width="31.95" height="10.49" rx="1.85" ry="1.85"/>
        <rect class="cls-20" x="411.67" y="183.55" width="31.95" height="10.49" rx="1.85" ry="1.85"/>
        <rect class="cls-21" x="445.89" y="183.55" width="31.95" height="10.49" rx="1.85" ry="1.85"/>
        <rect class="cls-20" x="480.1" y="183.55" width="31.95" height="10.49" rx="1.85" ry="1.85"/>
        <rect class="cls-21" x="51.53" y="196.66" width="31.95" height="10.49" rx="1.85" ry="1.85"/>
        <rect class="cls-20" x="85.74" y="196.66" width="31.95" height="10.49" rx="1.85" ry="1.85"/>
        <rect class="cls-31" x="120.07" y="196.66" width="31.95" height="10.49" rx="1.85" ry="1.85"/>
        <rect class="cls-21" x="154.28" y="196.66" width="31.95" height="10.49" rx="1.85" ry="1.85"/>
        <rect class="cls-20" x="189.15" y="196.66" width="31.95" height="10.49" rx="1.85" ry="1.85"/>
        <rect class="cls-20" x="223.36" y="196.66" width="31.95" height="10.49" rx="1.85" ry="1.85"/>
        <rect class="cls-20" x="257.69" y="196.66" width="31.95" height="10.49" rx="1.85" ry="1.85"/>
        <rect class="cls-20" x="291.9" y="196.66" width="31.95" height="10.49" rx="1.85" ry="1.85"/>
        <rect class="cls-21" x="326.23" y="196.66" width="31.95" height="10.49" rx="1.85" ry="1.85"/>
        <rect class="cls-20" x="360.44" y="196.66" width="31.95" height="10.49" rx="1.85" ry="1.85"/>
        <rect class="cls-20" x="394.78" y="196.66" width="31.95" height="10.49" rx="1.85" ry="1.85"/>
        <rect class="cls-20" x="428.99" y="196.66" width="31.95" height="10.49" rx="1.85" ry="1.85"/>
        <rect class="cls-21" x="463.2" y="196.66" width="31.95" height="10.49" rx="1.85" ry="1.85"/>
        <rect class="cls-21" x="68.96" width="31.95" height="10.49" rx="1.85" ry="1.85"/>
        <rect class="cls-20" x="103.17" width="31.95" height="10.49" rx="1.85" ry="1.85"/>
        <rect class="cls-20" x="137.5" width="31.95" height="10.49" rx="1.85" ry="1.85"/>
        <rect class="cls-20" x="171.71" width="31.95" height="10.49" rx="1.85" ry="1.85"/>
        <rect class="cls-21" x="206.58" width="31.95" height="10.49" rx="1.85" ry="1.85"/>
        <rect class="cls-20" x="240.79" width="31.95" height="10.49" rx="1.85" ry="1.85"/>
        <rect class="cls-20" x="275.12" width="31.95" height="10.49" rx="1.85" ry="1.85"/>
        <rect class="cls-20" x="309.33" width="31.95" height="10.49" rx="1.85" ry="1.85"/>
        <rect class="cls-20" x="343.67" width="31.95" height="10.49" rx="1.85" ry="1.85"/>
        <rect class="cls-21" x="377.88" width="31.95" height="10.49" rx="1.85" ry="1.85"/>
        <rect class="cls-20" x="412.21" width="31.95" height="10.49" rx="1.85" ry="1.85"/>
      </g>
      <g>
        <rect class="cls-32" x="126.78" y="19.85" width="275.8" height="138.58"/>
        <polygon class="cls-27" points="402.58 158.43 396.58 152.66 132.07 152.66 132.07 25.08 126.78 19.85 402.58 19.85 402.58 158.43"/>
        <rect class="cls-44" x="132.07" y="25.08" width="264.51" height="127.58"/>
        <path class="cls-43" d="M396.58,88.87l-59.27-13.79c-48.02-11.17-97.96-11.17-145.98,0l-59.27,13.79V25.08H396.58v63.79Z"/>
      </g>
    </g>
    <g>
      <rect class="cls-42" x="46.55" y="160.7" width="144.04" height="112.55" rx="12.19" ry="12.19" transform="translate(-20.19 12.32) rotate(-5.48)"/>
      <rect class="cls-2" x="52.85" y="155.04" width="144.04" height="112.55" rx="12.19" ry="12.19" transform="translate(-19.62 12.9) rotate(-5.48)"/>
      <path class="cls-29" d="M60.89,155.24h119.65c6.73,0,12.19,5.46,12.19,12.19v13.35H48.7v-13.35c0-6.73,5.46-12.19,12.19-12.19Z" transform="translate(-15.5 12.3) rotate(-5.48)"/>
      <rect class="cls-35" x="50.15" y="180.71" width="144.04" height="4.87" transform="translate(-16.94 12.51) rotate(-5.48)"/>
      <g>
        <rect class="cls-12" x="65.45" y="202.3" width="12.55" height="8.22" rx="2.01" ry="2.01" transform="translate(-19.39 7.8) rotate(-5.48)"/>
        <rect class="cls-12" x="82.8" y="200.64" width="12.55" height="8.22" rx="2.01" ry="2.01" transform="translate(-19.16 9.45) rotate(-5.48)"/>
        <rect class="cls-12" x="99.6" y="199.02" width="12.55" height="8.22" rx="2.01" ry="2.01" transform="translate(-18.93 11.05) rotate(-5.48)"/>
        <rect class="cls-30" x="117.65" y="197.29" width="12.55" height="8.22" rx="2.01" ry="2.01" transform="translate(-18.68 12.76) rotate(-5.48)"/>
        <rect class="cls-30" x="135.1" y="195.62" width="12.55" height="8.22" rx="2.01" ry="2.01" transform="translate(-18.44 14.42) rotate(-5.48)"/>
        <rect class="cls-36" x="152.55" y="193.94" width="12.55" height="8.22" rx="2.01" ry="2.01" transform="translate(-18.2 16.08) rotate(-5.48)"/>
        <rect class="cls-36" x="170.32" y="192.24" width="12.55" height="8.22" rx="2.01" ry="2.01" transform="translate(-17.95 17.77) rotate(-5.48)"/>
        <rect class="cls-12" x="66.62" y="214.48" width="12.55" height="8.22" rx="2.01" ry="2.01" transform="translate(-20.55 7.97) rotate(-5.48)"/>
        <rect class="cls-12" x="83.96" y="212.81" width="12.55" height="8.22" rx="2.01" ry="2.01" transform="translate(-20.31 9.61) rotate(-5.48)"/>
        <rect class="cls-12" x="100.77" y="211.2" width="12.55" height="8.22" rx="2.01" ry="2.01" transform="translate(-20.08 11.21) rotate(-5.48)"/>
        <rect class="cls-30" x="118.81" y="209.47" width="12.55" height="8.22" rx="2.01" ry="2.01" transform="translate(-19.83 12.93) rotate(-5.48)"/>
        <rect class="cls-30" x="136.26" y="207.79" width="12.55" height="8.22" rx="2.01" ry="2.01" transform="translate(-19.59 14.59) rotate(-5.48)"/>
        <rect class="cls-36" x="153.72" y="206.12" width="12.55" height="8.22" rx="2.01" ry="2.01" transform="translate(-19.36 16.25) rotate(-5.48)"/>
        <rect class="cls-36" x="171.49" y="204.41" width="12.55" height="8.22" rx="2.01" ry="2.01" transform="translate(-19.11 17.94) rotate(-5.48)"/>
        <rect class="cls-12" x="67.79" y="226.65" width="12.55" height="8.22" rx="2.01" ry="2.01" transform="translate(-21.71 8.13) rotate(-5.48)"/>
        <rect class="cls-12" x="85.13" y="224.98" width="12.55" height="8.22" rx="2.01" ry="2.01" transform="translate(-21.47 9.78) rotate(-5.48)"/>
        <rect class="cls-12" x="101.94" y="223.37" width="12.55" height="8.22" rx="2.01" ry="2.01" transform="translate(-21.24 11.38) rotate(-5.48)"/>
        <rect class="cls-30" x="119.98" y="221.64" width="12.55" height="8.22" rx="2.01" ry="2.01" transform="translate(-20.99 13.1) rotate(-5.48)"/>
        <rect class="cls-30" x="137.43" y="219.96" width="12.55" height="8.22" rx="2.01" ry="2.01" transform="translate(-20.75 14.76) rotate(-5.48)"/>
        <rect class="cls-36" x="154.88" y="218.29" width="12.55" height="8.22" rx="2.01" ry="2.01" transform="translate(-20.51 16.42) rotate(-5.48)"/>
        <rect class="cls-36" x="172.66" y="216.58" width="12.55" height="8.22" rx="2.01" ry="2.01" transform="translate(-20.27 18.11) rotate(-5.48)"/>
        <rect class="cls-30" x="68.96" y="238.82" width="12.55" height="8.22" rx="2.01" ry="2.01" transform="translate(-22.87 8.3) rotate(-5.48)"/>
        <rect class="cls-30" x="86.3" y="237.16" width="12.55" height="8.22" rx="2.01" ry="2.01" transform="translate(-22.63 9.95) rotate(-5.48)"/>
        <rect class="cls-30" x="103.11" y="235.54" width="12.55" height="8.22" rx="2.01" ry="2.01" transform="translate(-22.4 11.55) rotate(-5.48)"/>
        <rect class="cls-30" x="121.15" y="233.81" width="12.55" height="8.22" rx="2.01" ry="2.01" transform="translate(-22.15 13.26) rotate(-5.48)"/>
        <rect class="cls-30" x="138.6" y="232.14" width="12.55" height="8.22" rx="2.01" ry="2.01" transform="translate(-21.91 14.92) rotate(-5.48)"/>
        <rect class="cls-36" x="156.05" y="230.46" width="12.55" height="8.22" rx="2.01" ry="2.01" transform="translate(-21.67 16.58) rotate(-5.48)"/>
        <rect class="cls-36" x="173.83" y="228.75" width="12.55" height="8.22" rx="2.01" ry="2.01" transform="translate(-21.43 18.27) rotate(-5.48)"/>
        <rect class="cls-30" x="70.13" y="250.99" width="12.55" height="8.22" rx="2.01" ry="2.01" transform="translate(-24.03 8.47) rotate(-5.48)"/>
        <rect class="cls-30" x="87.47" y="249.33" width="12.55" height="8.22" rx="2.01" ry="2.01" transform="translate(-23.79 10.12) rotate(-5.48)"/>
        <rect class="cls-30" x="104.27" y="247.72" width="12.55" height="8.22" rx="2.01" ry="2.01" transform="translate(-23.56 11.72) rotate(-5.48)"/>
        <rect class="cls-30" x="122.32" y="245.98" width="12.55" height="8.22" rx="2.01" ry="2.01" transform="translate(-23.31 13.43) rotate(-5.48)"/>
        <rect class="cls-30" x="139.77" y="244.31" width="12.55" height="8.22" rx="2.01" ry="2.01" transform="translate(-23.07 15.09) rotate(-5.48)"/>
        <rect class="cls-36" x="157.22" y="242.63" width="12.55" height="8.22" rx="2.01" ry="2.01" transform="translate(-22.83 16.75) rotate(-5.48)"/>
        <rect class="cls-36" x="175" y="240.93" width="12.55" height="8.22" rx="2.01" ry="2.01" transform="translate(-22.58 18.44) rotate(-5.48)"/>
      </g>
      <g>
        <g>
          <circle class="cls-35" cx="66.48" cy="171.73" r="7.65"/>
          <line class="cls-6" x1="65.13" y1="157.66" x2="66.48" y2="171.73"/>
        </g>
        <g>
          <circle class="cls-35" cx="87.87" cy="169.68" r="7.65"/>
          <line class="cls-6" x1="86.52" y1="155.61" x2="87.87" y2="169.68"/>
        </g>
        <g>
          <circle class="cls-35" cx="109.27" cy="167.63" r="7.65"/>
          <line class="cls-6" x1="107.92" y1="153.55" x2="109.27" y2="167.63"/>
        </g>
        <g>
          <circle class="cls-35" cx="130.66" cy="165.57" r="7.65"/>
          <line class="cls-6" x1="129.31" y1="151.5" x2="130.66" y2="165.57"/>
        </g>
        <g>
          <circle class="cls-35" cx="152.06" cy="163.52" r="7.65"/>
          <line class="cls-6" x1="150.71" y1="149.45" x2="152.06" y2="163.52"/>
        </g>
        <g>
          <circle class="cls-35" cx="173.45" cy="161.47" r="7.65"/>
          <line class="cls-6" x1="172.1" y1="147.39" x2="173.45" y2="161.47"/>
        </g>
      </g>
    </g>
    <path class="cls-31" d="M277.83,315.65c.23,.1,.51,.17,.89,.18,4.12,.18,10.77-.77,16.02-1.6h0c1.21-.19,4.19-.39,6.19-.96,1-.19,1.78-.49,1.92-1.24,.13-.66-.34-1.18-1.04-1.66-1.54-1.29-4.35-2.61-5.43-3.28h0c-4.66-2.8-10.52-6.17-14.51-7.57-.36-.12-.64-.16-.89-.16-.07-.05-.12-.08-.12-.08l-14.26-2.75-14.26-2.75-14.26-2.75-14.26-2.75-14.26-2.75-14.26-2.75-14.26-2.75-14.26-2.75-9.68-1.87-2.92-.56-12.67-2.44c-2.13-.41-4.19,.97-4.59,3.08l-1.69,8.74c-.41,2.11,.99,4.16,3.12,4.57l12.67,2.44,2.92,.56,9.68,1.87,14.26,2.75,14.26,2.75,14.26,2.75,14.26,2.75,14.26,2.75,14.26,2.75,14.26,2.75,14.26,2.75s.05,0,.14-.03Z"/>
    <rect class="cls-10" x="169.8" y="91.33" width="171" height="198.78" rx="16.04" ry="16.04" transform="translate(-17.06 25.27) rotate(-5.48)"/>
    <rect class="cls-10" x="185.88" y="85.1" width="171" height="198.78" rx="16.04" ry="16.04" transform="translate(14.39 -19.57) rotate(4.24)"/>
    <g>
      <g>
        <polygon class="cls-41" points="438.99 270.08 371.75 270.08 349.75 199.43 459.47 199.43 438.99 270.08"/>
        <rect class="cls-24" x="342.43" y="190.26" width="122.84" height="9.17"/>
        <polygon class="cls-39" points="404.61 199.43 349.75 199.43 371.75 270.08 404.61 270.08 404.61 199.43"/>
        <rect class="cls-41" x="342.43" y="190.26" width="62.18" height="9.17"/>
        <polygon class="cls-39" points="438.99 271.13 371.75 271.13 349.75 261.61 459.47 261.61 438.99 271.13"/>
        <polygon class="cls-37" points="404.61 261.61 349.75 261.61 371.75 271.13 404.61 271.13 404.61 261.61"/>
      </g>
      <g>
        <path class="cls-38" d="M466.87,65.38c0-.42,.03-.86,.03-1.28,.03-1.07-1.72-1.7-2.67-.89-5.17,4.55-10.05,9.36-14.42,14.45-2.27,2.66-4.39,5.41-6.26,8.26-1.24,1.89-2.5,3.85-3.13,5.95-1.18,3.9-1.26,8.03-1.44,12.02-.09,1.87-.11,3.76-.23,5.65-.03,.65-.09,1.31-.17,1.96-.03,.14-.03,.12-.09,.4-.03,.09-.03,.16-.06,.19-.4,.58-.14,1.24,.34,1.63-9.08,11.74-16.77,24.02-22.98,36.92-6.18,12.84-13.7,25.53-13.18,39.63,0,.3,.14,.56,.34,.77h2.53c.17-.19,.29-.44,.29-.77-.49-13.7,6.84-26.12,12.87-38.56,5.83-11.97,12.81-23.36,21.02-34.31,.26,.54,.89,.91,1.75,.63,6.58-2.12,12.78-5.04,17.41-9.45,3.79-3.62,6.12-8.01,7.3-12.63,2.58-10.04,.63-20.47,.75-30.57Z"/>
        <path class="cls-40" d="M464.85,84.48c-2.3,1.87-4.74,4.11-7.55,5.72,.92-2.4,1.64-4.85,2.38-7.31,2.07-1.73,5.11-2.75,7.38-4.2,1.58-1-.63-2.78-2.21-1.8-1.29,.82-2.67,1.47-4.02,2.19,.98-3.17,2.1-6.37,3.99-9.27,.95-1.45-1.75-2.73-2.7-1.28-2.7,4.15-4.14,8.75-5.46,13.35-.26,.26-.52,.54-.78,.84-.4,.54-.29,1.05,.11,1.4-.6,2.1-1.26,4.18-2.04,6.21,.23-3.76,.75-7.49,1.67-11.18,.37-1.59-2.61-2.29-3.02-.68-1.32,5.46-1.9,10.99-1.92,16.55,0,.44,.23,.77,.57,.98-1.67,2.87-3.62,5.6-5.66,8.31-.14-5.04-.29-10.18,1.29-15.03,.52-1.59-2.5-2.26-3.02-.68-2.07,6.37-1.35,13.19-1.29,19.72-1.67,2.24-3.3,4.48-4.77,6.84-.89,1.45,1.78,2.73,2.7,1.28,1.38-2.22,2.93-4.34,4.54-6.44,4.62,.3,8.87-1.47,13.44-1.54,2.01-.02,2.01-2.57,0-2.54-3.93,.05-7.64,1.38-11.52,1.54,.63-.84,1.29-1.68,1.92-2.52,.29-.4,.57-.77,.86-1.17,.17-.07,.34-.14,.49-.28,3.16-2.52,6.84-4.57,9.97-7.1,1.44-1.14-.78-2.94-2.21-1.8-1.35,1.1-2.81,2.08-4.28,3.06,.75-1.28,1.41-2.57,2.04-3.9,4.39-1.63,7.93-4.78,11.29-7.52,1.41-1.14-.78-2.92-2.21-1.77Z"/>
        <path class="cls-38" d="M405.85,175.27c1.65,.1,2.16-3.24,.51-3.34-5-.33-9.3-3.92-12.84-7.5-3.64-3.69-6.91-8.01-9.3-13.15-5.59-11.99-8.55-26.07-14.68-37.61,4.36-12.26-2.35-23.18-9.44-28.27-10.14-7.28-23.11-7.44-33.48-14.14-.58-.38-1.37-.27-1.88,.58-.05,.08-.12,.19-.17,.27-3.26,6.09-.44,13.6,1.59,18.34,3.14,7.3,7.22,13.73,12.08,19.17,2.1,2.35,4.27,4.62,6.87,6.21,2.26,1.37,4.64,2.54,7.12,3.35,4.65,1.5,10.45,2.49,15.51-1.05,.19-.1,.35-.27,.46-.44,5.81,11.8,8.7,25.95,14.65,37.64,2.61,5.09,6.21,9.5,10.05,13.06,3.67,3.43,7.93,6.5,12.95,6.87Z"/>
        <path class="cls-40" d="M352.92,116.73c4.28,.13,8.94-1.65,13.08-.6,.57,.14,1.08-.17,1.43-.65,1.29,.14,2.62-2.26,1.36-3.03-.24-.16-.48-.31-.72-.47,.06-.38,.02-.8-.24-1.16-3.19-4.33-3.13-11.12-5.76-15.94-.88-1.6-3.11,.74-2.23,2.34,1.88,3.48,2.36,7.92,3.68,11.79-1.78-1.26-3.52-2.6-5.22-4,.36-.37,.6-.89,.57-1.54-.19-4.5-1.09-8.82-2.25-12.84-.55-1.88-3.05-.22-2.52,1.66,.99,3.45,1.77,7.09,2.03,10.92-1.54-1.3-3.05-2.66-4.53-4.05,.8-.28,1.51-1.26,1.1-2.32-1.26-3.21,.05-7.57-1.83-10.44-.99-1.5-3.19,.84-2.23,2.34,.86,1.32,.77,3.17,.81,4.96,.03,1.35,.12,2.66,.42,3.88-1.55-1.47-3.04-2.96-4.56-4.46,0-.27-.06-.52-.17-.77-1.31-2.73-.54-6.78-1.54-9.76-.61-1.8-3.12-.17-2.52,1.66,.54,1.64,.62,3.52,.77,5.35-1.03-1.05-2.04-2.09-3.06-3.17,.14-.38,.17-.81,.05-1.22-.61-2.14-1.06-4.35-1.68-6.46-.55-1.88-3.05-.22-2.52,1.66,.22,.75,.43,1.53,.62,2.31-2.57-2.69-5.14-5.38-7.74-7.98-1.22-1.22-2.97,1.66-1.78,2.87,2.15,2.13,4.25,4.35,6.36,6.53-.9-.13-1.79-.22-2.69-.32-1.66-.14-2.14,3.18-.51,3.34,2.23,.22,4.41,.65,6.68,.64,1.11,1.18,2.25,2.34,3.38,3.52-1.73,.51-3.46,1.15-5.14,1.07-1.66-.07-2.17,3.26-.51,3.34,2.54,.13,5.04-1.34,7.59-1.58,.21-.02,.4-.09,.57-.19,1.62,1.67,3.26,3.31,4.93,4.93-2.1,.5-4.19,.58-6.28,.58-1.67,.02-2.2,3.35-.51,3.34,2.94-.03,5.9-.15,8.91-1.29,.14-.05,.3-.13,.4-.22,1.69,1.63,3.44,3.17,5.21,4.7-2.44,0-4.99,1.59-7.46,1.36-1.64-.13-2.15,3.21-.51,3.34,2.81,.26,6.09-2.23,8.69-1.11,.85,.38,1.6-.49,1.8-1.45,1.95,1.59,3.94,3.09,6,4.52-3.1,.17-6.26,.92-9.34,.84-1.68-.04-2.17,3.26-.4,3.24Z"/>
        <path class="cls-13" d="M480.71,147.61c-1.92-9.38-3.38-21.07-12.4-27.54-1.48-.79-2.37-.87-4.03-.47-5.66,1.33-10.83,3.55-14.91,7.05-.66,.56-1.26,1.17-1.87,1.77-.09-.7-.83-1.4-1.95-1.21-5.51,.91-9.85,4.43-13.24,7.87-4.28,4.32-7.61,9.22-10.63,14.17-2.67,4.36-5,8.89-7.44,13.35l-.17,.21c-1.95,2.43-2.99,5.46-4.02,8.19-.23,.63-.49,1.26-.72,1.89-.29-7.1-1.38-14.21-1.41-21.22v-.14c5.74-3.69,10.66-8.15,13.21-13.82,2.18-4.88,1.98-10.2,.57-15.19-3.1-10.97-11.4-20.54-17.78-30.36-2.1-3.22-4.02-6.51-5.43-9.99-.46-1.14-2.64-1.28-3.02,0-3.39,11.83-13.5,21.61-16.37,33.59-1.41,5.95-.32,11.76,2.7,17.27,.98,1.8,2.56,3.38,4.08,4.9,1.81,1.84,3.79,3.59,5.77,5.32,1.18,1.03,2.36,2.05,3.53,3.08,.37,.35,.78,.68,1.15,1.03,.03,.02,.14,.14,.2,.21l.03,.02v-.02s.03,.02,0-.02c-.03-.05-.06-.14-.09-.23,.14,.4,.46,.75,.95,.93,1.81,1.96,3.82,3.73,6.29,5.27,.4,.26,.8,.3,1.15,.21,.29,9.2,2.15,18.67,1.21,27.87-.78,2.29-1.38,4.62-1.78,6.96-.23,.82-.46,1.63-.69,2.45h3.53c.86-2.43,1.44-4.85,1.78-7.33,1.26-4.13,2.64-8.24,4.37-12.28,.11-.28,.26-.58,.37-.86-.11,7.03,2.81,14.28,6.15,20.49,5.31,9.87,13.13,19.25,22.63,26.77,2.04,1.61,4.19,3.08,6.49,4.41,.86,.49,2.01-.05,2.3-.75,2.47-6.25,3.68-12.81,2.93-19.37-.69-5.97-3.02-11.69-6.38-16.99-3.59-5.65-8.39-10.76-13.53-15.54-2.64-2.47-5.4-4.92-8.5-7.03-1.84-1.24-3.99-2.45-6.46-2.54h-.32c.89-1.63,1.81-3.27,2.73-4.9,2.81-5.02,5.89-9.97,9.59-14.56,3.19-3.94,7.09-8.15,12.47-10.22,.83-.33,1.75-.54,2.64-.68-1.95,2.26-4.28,4.09-5.44,6.73-.41,.93-1.04,2.56-1.18,3.12-1.09,3.92-.3,6,2.37,9.43,2.56,3.31,6.66,5.72,10.57,7.94,.26,.14,.53,.14,.78,.23,1.56,.59,2.7,1.91,3.99,2.8,4.48,3.06,9.16,5.93,13.44,9.2,3.56,2.73,7.09,5.9,8.5,9.8,.52,1.38,3.02,1.1,3.07-.33,.32-10.27,.29-20.68-1.81-30.92Z"/>
        <path class="cls-34" d="M414.97,130.08c-3.07,2.17-5.74,4.69-8.33,7.24-.17-2.38-.43-4.74-.78-7.1,2.73-2.5,5.57-4.9,8.21-7.47,1.29-1.24-.92-3.03-2.21-1.8-2.13,2.05-4.37,3.99-6.58,5.97-.34-1.82-.78-3.62-1.29-5.44-.26-.91-.52-1.84-.8-2.78,0-.02,.03-.07,.03-.09,1.35-3.57,4.8-6.3,7.32-9.34,1.12-1.35-1.58-2.61-2.7-1.28-1.9,2.26-4.16,4.34-5.86,6.7-.57-1.94-1.09-3.87-1.55-5.83,.66,.05,1.32-.21,1.52-.91,.66-2.43,2.47-4.29,4.6-6.02,1.41-1.17-.8-2.96-2.21-1.8-1.87,1.54-3.56,3.22-4.6,5.18-.63-4.01-.72-8.05,.34-12.04,.43-1.59-2.58-2.26-3.02-.68-1.09,4.15-1.06,8.33-.46,12.51-1.81-1.87-3.82-3.62-5.66-5.46-1.26-1.26-3.45,.54-2.21,1.8,2.41,2.43,5.2,4.67,7.24,7.35,.34,.47,.89,.63,1.41,.58,.49,2.17,1.06,4.32,1.69,6.44-3.71-2.43-7.32-4.97-11.57-6.75-1.78-.75-3.36,1.45-1.58,2.19,5.06,2.1,9.22,5.34,13.73,8.1,.17,.12,.37,.19,.55,.21,.11,.42,.26,.84,.37,1.28,.75,2.57,1.32,5.11,1.78,7.68-4.85-2.94-10.63-4.81-15.48-7.82-1.61-1-3.16,1.21-1.58,2.19,5.08,3.15,11.26,4.99,16.17,8.29,.17,.56,.78,1.03,1.44,1.05,.34,2.64,.55,5.27,.69,7.91-.17,.16-.37,.35-.55,.51-.09,.09-.17,.19-.23,.26-3.76-2.12-7.64-4.18-11.6-6.04-1.75-.82-3.3,1.38-1.58,2.19,4.85,2.26,9.54,4.83,14.13,7.47,.06,2.19,.09,4.41,.09,6.63,0,1.63,3.13,1.63,3.13,0,0-3.41-.03-6.82-.17-10.2,3.27-3.2,6.46-6.44,10.34-9.17,1.55-1-.66-2.8-2.18-1.73Z"/>
        <path class="cls-34" d="M450.52,206.89c-1.9-1.17-3.91-2.36-5.2-3.97-1.15-2.64-2.38-5.23-3.73-7.82,1.58,.98,3.13,2.01,4.57,3.15,1.44,1.14,3.65-.65,2.21-1.8-2.79-2.22-5.95-4.06-9.19-5.83-1.41-2.52-2.93-4.99-4.48-7.47,1.64,.89,3.33,1.7,4.94,2.61,1.64,.93,3.22-1.26,1.58-2.19-2.01-1.14-4.11-2.15-6.15-3.29-1.58-.89-3.33-1.96-3.73-3.57-.17-.72-.89-.98-1.58-.89-1.24-1.7-2.47-3.41-3.76-5.09,2.67,1.24,5.23,2.59,8.42,2.99,1.95,.23,2.81-2.22,.83-2.45-4.68-.56-8.1-3.29-12.41-4.55-.55-.65-1.06-1.31-1.61-1.96-1.12-1.35-3.82-.07-2.7,1.28,.46,.54,.89,1.1,1.35,1.63-.2,.19-.32,.44-.32,.77v13.68c0,1.63,3.13,1.63,3.13,0v-10.92c1.49,1.94,2.96,3.87,4.37,5.86-.37,.21-.63,.54-.63,1-.03,4.76-.6,9.48-1.24,14.19-.23,1.63,2.9,1.61,3.13,0,.55-3.9,1.01-7.8,1.18-11.72,2.13,3.13,4.11,6.3,6,9.52-.26,.35-.34,.82-.14,1.21-.89-.65-2.84,.05-2.61,1.33,.55,3.29,.55,6.68,0,9.97-.26,1.59,2.73,2.29,3.02,.68,.63-3.78,.63-7.52,0-11.32-.03-.12-.06-.21-.09-.28,.09,.07,.17,.14,.29,.21,.26,.14,.55,.3,.8,.44,1.64,2.92,3.16,5.88,4.54,8.87-.92,0-1.92,.63-1.69,1.59,.6,2.61,.52,5.32,0,7.94-.32,1.59,2.7,2.29,3.02,.68,.4-2.08,.57-4.15,.46-6.21,1.84,4.36,3.42,8.8,4.65,13.3,.43,1.59,3.45,.91,3.02-.68-.89-3.24-1.95-6.44-3.16-9.62,.49,.3,1.01,.61,1.49,.91,1.49,.98,3.04-1.21,1.44-2.19Z"/>
        <path class="cls-34" d="M481.39,159.13c-2.1-.8-3.77-2.17-5.61-3.39-1.34-2.52-2.85-4.98-4.47-7.35,1.7,.05,3.39,.23,4.93,.92,1.56,.71,2.69-1.58,1.15-2.29-2.45-1.14-5.14-1.11-7.84-1.13-1.89-2.58-3.95-5.03-6.19-7.35,3.07-.23,6.19,.08,9.09,.94,1.64,.47,2.79-1.8,1.15-2.29-4.03-1.19-8.38-1.54-12.55-.91-.35-.31-.69-.65-1.04-.95-.63-.57-1.31-1.13-1.98-1.67,1.4-.27,2.76-.64,4.15-.96,2.24-.52,4.75-1.15,7.06-.75,1.7,.3,2.19-2.16,.48-2.49-4.82-.88-9.78,1.54-14.54,2.09-2.05-1.31-4.27-2.4-6.66-3.1-1.64-.47-2.1,2.01-.48,2.49,1.28,.36,2.5,.88,3.66,1.51,.02,.18,.06,.39,.18,.56,1.01,1.65,.66,4.05,.54,5.85-.16,2.22-.52,4.49-.33,6.72,.13,1.61,2.82,1.36,2.69-.26-.27-3.37,.9-7.22,.4-10.66,1.18,.86,2.29,1.82,3.36,2.74l.41,.38c-.38,.22-.64,.6-.59,1.13,.36,3.8,.7,7.6-.08,11.39-.32,1.59,2.31,2.01,2.66,.42,.75-3.58,.55-7.21,.23-10.8,2.05,2.1,3.93,4.36,5.68,6.68-.16,.15-.29,.38-.34,.66-.63,3.55,.58,7.12-.6,10.65-.52,1.56,2.13,1.93,2.66,.42,.97-2.9,.34-5.82,.41-8.75,1.45,2.11,2.81,4.31,4.02,6.56-.06,.19-.06,.4,0,.58-.39,.39-.51,.95-.06,1.47,1.26,1.46,.54,4.06,.43,5.79-.1,1.59,2.54,2.03,2.66,.42,.03-.51,.1-1.05,.15-1.59,1.5,3.69,2.67,7.6,2.61,11.6-.02,1.63,2.67,1.35,2.69-.26,.06-4.28-1.3-8.57-2.9-12.52-.19-.45-.39-.92-.58-1.36,.71,.42,1.45,.79,2.25,1.09,1.58,.66,2.74-1.61,1.13-2.22Z"/>
        <path class="cls-25" d="M401.15,188.78c.17,.47,.29,.96,.32,1.28v.4c-.2,.19-.32,.37-.34,.56h4.77c.09-.14,.17-.3,.2-.51,.83-5.83,.06-12.39-2.38-17.92-.98-2.19-2.27-4.92-4.42-6.7-.26-.54-.55-1.1-.89-1.61-.69-1.07-2.36-.65-2.79,.23-1.78,.09-3.5,1.07-5,1.98-2.58-3.48-5.28-6.93-8.21-10.18-2.73-3.03-5.95-6.65-10.25-8.33-1.69-.65-3.48-.82-5.17-.16-1.72,.68-2.7,2.26-3.3,3.71-.43,.23-.78,.58-1.06,.98-1.87-1.14-3.91-2.1-6.12-2.8-.4-.54-1.18-.82-2.01-.37-8.3,4.69-14.59,10.67-17.92,18.51-4.34,10.18-.98,21.12-4.28,31.41-.32,1,1.12,2.12,2.3,1.42,3.85-2.26,8.56-3.24,12.64-5.18,3.93-1.89,7.55-4.27,10.94-6.75,6.66-4.81,12.95-11.23,14.79-18.46,.46-.16,.8-.54,.75-1.1-.52-5.62-3.68-11.09-8.65-14.98,.11-.19,.26-.37,.4-.54,.49-.14,.86-.44,1.01-.86,.29-.75,.6-1.45,1.15-2.1,.37-.44,.78-.65,1.18-.77,.43-.12,.75-.07,1.38,.07,.72,.16,1.38,.51,2.07,.89,3.65,2.03,6.43,5.34,8.96,8.24,2.47,2.87,4.83,5.88,7.07,8.92-10.57,7.56-15.11,19.56-16.4,30.64-.55,4.71-.86,9.8,.69,14.38,.29,.84,1.41,1.12,2.3,.75,10.17-3.99,15.62-12.67,19.62-20.8,1.55-3.15,2.99-6.37,4.16-9.64,.26,.44,.52,.91,.78,1.38,.63,1.35,1.29,2.66,1.75,4.01Zm-1.26-9.55c.52-1.96,.86-3.99,.92-6,1.78,3.99,2.33,8.43,2.41,12.58-.34-.7-.72-1.38-1.06-2.03-.75-1.38-1.55-2.75-2.38-4.11,.03-.14,.09-.3,.11-.44Z"/>
        <path class="cls-34" d="M365.05,154.17c1.09-1.38-1.61-2.64-2.7-1.28-.49,.58-.98,1.17-1.49,1.73-.23,.05-.43,.12-.6,.23-.34-.23-.8-.35-1.32-.26-2.87,.49-5.66,1.42-8.62,1.47-2.01,.05-2.01,2.57,0,2.54,2.81-.05,5.43-.77,8.13-1.31-1.61,1.7-3.16,3.43-4.42,5.34l-.34,.56c.23-.96-.98-2.05-2.27-1.38-2.73,1.45-5.92,2.8-9.19,3.13-1.98,.19-1.98,2.73,0,2.54,2.96-.28,5.83-1.17,8.44-2.33,.32,.61,.63,1.21,.92,1.84l-.86,1.68c-.57,1.07-1.12,2.17-1.67,3.27,.06-.89-1.09-1.82-2.33-1.24-3.56,1.68-8.01,2.43-10.54,5.27-1.18,1.33,1.52,2.59,2.7,1.28,1.03-1.17,2.81-1.8,4.37-2.38,1.21-.47,2.44-.89,3.65-1.35-.03,.86,.11,1.7,.32,2.52-.17,.4-.37,.79-.57,1.17-.2,.07-.37,.16-.55,.28-3.25,2.61-7.04,4.74-10.28,7.35-1.44,1.14,.78,2.94,2.21,1.8,1.58-1.26,3.27-2.43,5-3.57-3.22,4.64-6.72,9.17-7.9,14.49-.37,1.59,2.64,2.29,3.02,.68,.95-4.22,3.36-8.01,5.92-11.76,.32,1.61,.63,3.2,.66,4.83s3.16,1.63,3.13,0c-.06-2.89-1.06-5.67-1.24-8.54,.66-.96,1.29-1.94,1.9-2.92,.29,.93,.55,1.87,.57,2.85,.06,1.63,3.16,1.63,3.13,0-.06-2.19-1.15-4.25-1.75-6.35,.92-1.89,1.67-3.8,2.61-5.69,.46,1.4,.83,2.82,1.09,4.25,.29,1.61,3.27,.93,3.02-.68-.43-2.45-1.21-4.85-2.21-7.17,.49-.93,1.01-1.84,1.55-2.75,1.01-1.68,2.27-3.2,3.65-4.69,.72,2.78,1.98,5.51,2.04,8.38,.03,1.63,3.16,1.63,3.13,0-.09-3.83-2.33-7.42-2.5-11.2,.72-.91,1.49-1.75,2.21-2.64Z"/>
        <path class="cls-34" d="M395.32,167.82c-1.84,1.89-3.45,3.87-4.91,5.95-.4-.02-.8,.09-1.12,.33-.46-.12-.98-.05-1.44,.33-1.78,1.4-3.91,2.45-5.92,3.59-1.64,.93-.09,3.13,1.58,2.19,1.46-.84,2.96-1.61,4.37-2.5-.92,1.56-1.75,3.15-2.53,4.76-.09,.02-.2,.07-.29,.12-2.67,1.31-6.12,1.91-8.1,3.99-1.24,1.26,.98,3.08,2.21,1.8,1.15-1.19,2.9-1.87,4.65-2.47-.57,1.33-1.09,2.68-1.61,4.06-.29-.02-.57,.07-.89,.26-2.76,1.68-5.51,3.41-7.41,5.76-1.09,1.38,1.61,2.64,2.7,1.28,1.15-1.42,2.7-2.57,4.34-3.64-.49,1.42-.92,2.87-1.38,4.29-2.47,1.42-4.91,2.8-6.58,4.9-1.09,1.38,1.61,2.64,2.7,1.28,.75-.93,1.72-1.7,2.79-2.38-.43,1.49-.86,2.99-1.26,4.46-.46,1.59,2.56,2.26,3.02,.68,.29-1.03,.57-2.05,.89-3.06,.06,.26,.11,.51,.17,.79,.11,.68,1.18,1.05,1.92,.89,.89-.21,1.21-.89,1.09-1.56-.29-1.49-.83-2.94-1.98-4.11,.43-1.4,.89-2.82,1.35-4.22,.32,.56,.6,1.14,.92,1.7,.34,.63,1.46,.77,2.13,.44,.8-.37,.89-1.1,.55-1.73-.75-1.4-1.49-2.8-2.3-4.18,.46-1.24,.92-2.47,1.44-3.71,.2,.72,.34,1.47,.46,2.19,.23,1.61,3.36,1.61,3.13,0-.32-2.19-.92-4.32-1.72-6.44,.78-1.68,1.64-3.34,2.56-4.97,.52,.93,1.01,1.89,1.41,2.87,.66,1.54,3.65,.89,3.02-.68-.75-1.75-1.67-3.43-2.64-5.09,1.46-2.22,3.13-4.36,5.06-6.35,1.09-1.31-1.09-3.13-2.36-1.84Z"/>
      </g>
    </g>
    <g>
      <g>
        <rect class="cls-14" x="179.18" y="89.06" width="171" height="201" rx="16.04" ry="16.04"/>
        <rect class="cls-18" x="175.6" y="86.67" width="171" height="201" rx="16.04" ry="16.04"/>
        <rect class="cls-22" x="187.49" y="105.06" width="141.23" height="167.41" rx="4.08" ry="4.08"/>
        <rect class="cls-15" x="190.49" y="101.06" width="141.23" height="167.41" rx="4.08" ry="4.08"/>
        <g>
          <path class="cls-28" d="M286.6,85.83c.54-7.97-6.87-8.85-12.87-8.3-3.95-13.28-24.3-13.27-28.26,0-6.01-.55-13.41,.33-12.87,8.3-9.01,1.11-16,8.92-16,18.4,0,1.57,1.25,2.84,2.79,2.84h80.43c1.54,0,2.79-1.27,2.79-2.84,0-9.48-6.99-17.28-16-18.4Zm-27,4.94c-10.38,.15-10.38-16.45,0-16.29,10.38-.15,10.38,16.45,0,16.29Z"/>
          <path class="cls-27" d="M288.6,84.2c.54-7.82-6.87-8.69-12.87-8.15-3.95-13.04-24.3-13.04-28.26,0-6.01-.54-13.41,.33-12.87,8.15-9.01,1.09-16,8.76-16,18.07,0,1.54,1.25,2.79,2.79,2.79h80.43c1.54,0,2.79-1.25,2.79-2.79,0-9.31-6.99-16.97-16-18.07Zm-27,4.85c-10.38,.15-10.38-16.15,0-16,10.38-.15,10.38,16.15,0,16Z"/>
          <path class="cls-33" d="M220.9,100.06c-.2,.51-.3,1.03-.3,1.57,0,.71,1.19,1.29,2.66,1.29h76.69c1.47,0,2.66-.58,2.66-1.29,0-.54-.1-1.06-.3-1.57h-81.4Z"/>
          <g class="cls-45">
            <path class="cls-32" d="M252.44,82.24h-16.7c-.1,.31-.16,.79-.18,1-.03,.27-.21,.86,.72,.86h16.6c-.21-.59-.36-1.22-.45-1.86Z"/>
            <path class="cls-32" d="M287.41,82.24h-16.71c-.09,.64-.24,1.27-.45,1.86h16.66c.82,0,.68-.59,.68-.86,0-.02,0-1-.19-1Z"/>
          </g>
        </g>
      </g>
      <g>
        <polyline class="cls-4" points="235.05 143.38 237.77 146.1 242.98 140.9"/>
        <rect class="cls-5" x="230.94" y="135.49" width="15.3" height="15.3"/>
        <line class="cls-3" x1="253.35" y1="140.08" x2="293.96" y2="140.08"/>
        <line class="cls-3" x1="253.35" y1="146.19" x2="293.96" y2="146.19"/>
        <line class="cls-3" x1="253.35" y1="160.88" x2="293.96" y2="160.88"/>
        <line class="cls-3" x1="253.35" y1="166.99" x2="272.16" y2="166.99"/>
        <rect class="cls-5" x="230.94" y="156.28" width="15.3" height="15.3"/>
        <g>
          <rect class="cls-5" x="230.94" y="177.08" width="15.3" height="15.3"/>
          <line class="cls-3" x1="253.35" y1="178.62" x2="293.96" y2="178.62"/>
          <line class="cls-3" x1="253.35" y1="184.73" x2="275.67" y2="184.73"/>
        </g>
        <line class="cls-1" x1="221.14" y1="120.53" x2="314.9" y2="120.53"/>
        <line class="cls-1" x1="221.14" y1="126.01" x2="307.97" y2="126.01"/>
        <text class="cls-11" transform="translate(204.81 127.09)"><tspan x="0" y="0">1</tspan></text>
        <rect class="cls-5" x="230.94" y="222.51" width="15.3" height="15.3"/>
        <line class="cls-3" x1="253.35" y1="227.1" x2="293.96" y2="227.1"/>
        <line class="cls-3" x1="253.35" y1="233.21" x2="293.96" y2="233.21"/>
        <line class="cls-3" x1="253.35" y1="247.9" x2="293.96" y2="247.9"/>
        <line class="cls-3" x1="253.35" y1="254" x2="272.16" y2="254"/>
        <polyline class="cls-4" points="235.05 251.19 237.77 253.92 242.98 248.71"/>
        <rect class="cls-5" x="230.94" y="243.3" width="15.3" height="15.3"/>
        <line class="cls-1" x1="221.14" y1="207.55" x2="314.9" y2="207.55"/>
        <line class="cls-1" x1="221.14" y1="213.03" x2="281.3" y2="213.03"/>
        <text class="cls-11" transform="translate(204.81 214.1)"><tspan x="0" y="0">2</tspan></text>
      </g>
    </g>
    <g>
      <rect class="cls-26" x="152.55" y="277.2" width="16.69" height="9.77" transform="translate(468.36 177.56) rotate(100.92)"/>
      <rect class="cls-19" x="146.3" y="279.4" width="16.69" height="2.95" transform="translate(459.74 182.26) rotate(100.92)"/>
      <path class="cls-23" d="M136.66,270.67h16.69v12.79c0,2.15-1.75,3.89-3.89,3.89h-8.9c-2.15,0-3.89-1.75-3.89-3.89v-12.79h0Z" transform="translate(446.45 189.51) rotate(100.92)"/>
      <path class="cls-17" d="M276.74,310.58l2.28-11.83c.24-1.24,.49-2.52,2.35-1.87,4.97,1.74,12.88,6.61,17.66,9.54,1.57,.96,3.37,1.69,3.13,2.93h0c-.24,1.24-2.17,1.26-4,1.55-5.24,.84-14.69,2.51-19.95,2.28-1.97-.08-1.73-1.37-1.49-2.61Z"/>
      <path class="cls-16" d="M164.11,291.2l.4-2.05,.4-2.05,.4-2.05,.4-2.05,.4-2.05,.4-2.05,.4-2.05,.4-2.05,14.14,2.73,14.14,2.73,14.14,2.73,14.14,2.73,14.14,2.73,14.14,2.73,14.14,2.73,14.14,2.73s2.68,1.72,2.51,2.61-3.13,.6-3.3,1.49,2.68,1.72,2.51,2.61-3.13,.6-3.3,1.49,2.68,1.72,2.51,2.61c-.17,.89-3.13,.6-3.3,1.49s2.68,1.72,2.51,2.61c-.17,.89-3.3,1.49-3.3,1.49l-14.14-2.73-14.14-2.73-14.14-2.73-14.14-2.73-14.14-2.73-14.14-2.73-14.14-2.73-14.14-2.73Z"/>
      <path class="cls-8" d="M280.01,296.57h.04s2.68,1.73,2.51,2.62-3.13,.6-3.3,1.49c-.17,.89,2.68,1.72,2.51,2.61s-3.13,.6-3.3,1.49,2.68,1.72,2.51,2.61c-.17,.89-3.13,.6-3.3,1.49-.17,.89,2.68,1.72,2.51,2.61s-3.3,1.49-3.3,1.49h-.04"/>
      <line class="cls-7" x1="279.21" y1="300.71" x2="166.48" y2="278.95"/>
      <line class="cls-7" x1="278.43" y1="304.77" x2="165.7" y2="283.01"/>
      <line class="cls-7" x1="277.64" y1="308.86" x2="164.9" y2="287.11"/>
      <path class="cls-27" d="M295.76,304.42c1.57,.96,6.73,3.31,6.41,4.93h0c-.31,1.6-6.23,1.92-8.05,2.21-2,.33-.18-8.26,1.64-7.14Z"/>
    </g>
  </g>
</svg>